<svg xmlns="http://www.w3.org/2000/svg">
    <defs>

        <g id="logo">
            <g id="Group 1">
                <path id="Rectangle 1" d="M22.9227 12.1212L34.384 0L48.9972 63.6363L37.5358 75.7575L22.9227 12.1212Z"
                    fill="#F7D56E" />
                <path id="Rectangle 3"
                    d="M57.5931 30.9092L69.0544 18.788L78.51 51.2122L48.8539 63.0304L57.5931 30.9092Z" fill="#F7D56E" />
                <path id="Rectangle 2" d="M48.9971 63.6365L100 46.9698L88.5387 59.0911L37.5358 75.7577L48.9971 63.6365Z"
                    fill="#F7D56E" />
            </g>
            <g id="Group 3">
                <path id="Rectangle 1_2" d="M0 36.3636L11.4613 24.2424L26.0745 87.8788L14.6132 100L0 36.3636Z"
                    fill="#F2BA0D" />
                <path id="Rectangle 2_2"
                    d="M26.0745 87.8787L77.0774 71.212L65.6161 83.3332L14.6132 99.9999L26.0745 87.8787Z"
                    fill="#F1B90E" />
            </g>
            <g id="Group 2">
                <path id="Rectangle 1_3"
                    d="M11.4613 24.2424L22.9226 12.1212L37.5358 75.7575L26.0745 87.8787L11.4613 24.2424Z"
                    fill="#F4C73E" />
                <path id="Rectangle 2_3"
                    d="M37.5358 75.7575L88.5386 59.0908L77.0773 71.212L26.0745 87.8787L37.5358 75.7575Z"
                    fill="#F4C73E" />
            </g>
            <path id="Union" fill-rule="evenodd" clip-rule="evenodd"
                d="M67.0092 32.5868L34.384 0L48.9971 63.6363L63.0465 59.0291L63.0372 59.0909L100 46.9697L69.0544 18.9394L67.0092 32.5868Z"
                fill="#FAE39E" />
        </g>

        <g id="marker">
            <path
                d="M172.268 501.67C26.97 291.031 0 269.413 0 192 0 85.961 85.961 0 192 0s192 85.961 192 192c0 77.413-26.97 99.031-172.268 309.67-9.535 13.774-29.93 13.773-39.464 0zM192 272c44.183 0 80-35.817 80-80s-35.817-80-80-80-80 35.817-80 80 35.817 80 80 80z">
            </path>
        </g>

        <g id="rss">
            <path d="M0 0h24v24H0z" fill="none" />
            <circle cx="6.18" cy="17.82" r="2.18" />
            <path
                d="M4 4.44v2.83c7.03 0 12.73 5.7 12.73 12.73h2.83c0-8.59-6.97-15.56-15.56-15.56zm0 5.66v2.83c3.9 0 7.07 3.17 7.07 7.07h2.83c0-5.47-4.43-9.9-9.9-9.9z" />
        </g>

        <g id="dark">
            <path d="M0 0h24v24H0z" fill="none" />
            <path
                d="M20 8.69V4h-4.69L12 .69 8.69 4H4v4.69L.69 12 4 15.31V20h4.69L12 23.31 15.31 20H20v-4.69L23.31 12 20 8.69zM12 18c-.89 0-1.74-.2-2.5-.55C11.56 16.5 13 14.42 13 12s-1.44-4.5-3.5-5.45C10.26 6.2 11.11 6 12 6c3.31 0 6 2.69 6 6s-2.69 6-6 6z" />
        </g>

        <g id="light">
            <path d="M0 0h24v24H0z" fill="none" />
            <path
                d="M20 15.31L23.31 12 20 8.69V4h-4.69L12 .69 8.69 4H4v4.69L.69 12 4 15.31V20h4.69L12 23.31 15.31 20H20v-4.69zM12 18c-3.31 0-6-2.69-6-6s2.69-6 6-6 6 2.69 6 6-2.69 6-6 6z" />
        </g>

        <g id="chevron_left">
            <path d="M15.41 7.41L14 6l-6 6 6 6 1.41-1.41L10.83 12z" />
            <path d="M0 0h24v24H0z" fill="none" />
        </g>

        <g id="chevron_right">
            <path d="M10 6L8.59 7.41 13.17 12l-4.58 4.59L10 18l6-6z" />
            <path d="M0 0h24v24H0z" fill="none" />
        </g>

    </defs>
</svg>