<svg xmlns="http://www.w3.org/2000/svg">
    <defs>

        <g id="logo">
            <path d="M560 160c44.2 0 80-35.8 80-80s-35.8-80-80-80s-80 35.8-80 80s35.8 80 80 80zM55.9 512H381.1h75H578.9c33.8 0 61.1-27.4 61.1-61.1c0-11.2-3.1-22.2-8.9-31.8l-132-216.3C495 196.1 487.8 192 480 192s-15 4.1-19.1 10.7l-48.2 79L286.8 81c-6.6-10.6-18.3-17-30.8-17s-24.1 6.4-30.8 17L8.6 426.4C3 435.3 0 445.6 0 456.1C0 487 25 512 55.9 512z"/>
        </g>

        <g id="marker">
            <path
                d="M172.268 501.67C26.97 291.031 0 269.413 0 192 0 85.961 85.961 0 192 0s192 85.961 192 192c0 77.413-26.97 99.031-172.268 309.67-9.535 13.774-29.93 13.773-39.464 0zM192 272c44.183 0 80-35.817 80-80s-35.817-80-80-80-80 35.817-80 80 35.817 80 80 80z">
            </path>
        </g>

        <g id="rss">
            <path d="M0 0h24v24H0z" fill="none" />
            <circle cx="6.18" cy="17.82" r="2.18" />
            <path
                d="M4 4.44v2.83c7.03 0 12.73 5.7 12.73 12.73h2.83c0-8.59-6.97-15.56-15.56-15.56zm0 5.66v2.83c3.9 0 7.07 3.17 7.07 7.07h2.83c0-5.47-4.43-9.9-9.9-9.9z" />
        </g>

        <g id="dark">
            <path d="M0 0h24v24H0z" fill="none" />
            <path
                d="M20 8.69V4h-4.69L12 .69 8.69 4H4v4.69L.69 12 4 15.31V20h4.69L12 23.31 15.31 20H20v-4.69L23.31 12 20 8.69zM12 18c-.89 0-1.74-.2-2.5-.55C11.56 16.5 13 14.42 13 12s-1.44-4.5-3.5-5.45C10.26 6.2 11.11 6 12 6c3.31 0 6 2.69 6 6s-2.69 6-6 6z" />
        </g>

        <g id="bars">
            <path
                d="M16 132h416c8.837 0 16-7.163 16-16V76c0-8.837-7.163-16-16-16H16C7.163 60 0 67.163 0 76v40c0 8.837 7.163 16 16 16zm0 160h416c8.837 0 16-7.163 16-16v-40c0-8.837-7.163-16-16-16H16c-8.837 0-16 7.163-16 16v40c0 8.837 7.163 16 16 16zm0 160h416c8.837 0 16-7.163 16-16v-40c0-8.837-7.163-16-16-16H16c-8.837 0-16 7.163-16 16v40c0 8.837 7.163 16 16 16z">
            </path>
        </g>

        <g id="times">
            <path
                d="M242.72 256l100.07-100.07c12.28-12.28 12.28-32.19 0-44.48l-22.24-22.24c-12.28-12.28-32.19-12.28-44.48 0L176 189.28 75.93 89.21c-12.28-12.28-32.19-12.28-44.48 0L9.21 111.45c-12.28 12.28-12.28 32.19 0 44.48L109.28 256 9.21 356.07c-12.28 12.28-12.28 32.19 0 44.48l22.24 22.24c12.28 12.28 32.2 12.28 44.48 0L176 322.72l100.07 100.07c12.28 12.28 32.2 12.28 44.48 0l22.24-22.24c12.28-12.28 12.28-32.19 0-44.48L242.72 256z">
            </path>
        </g>


        <g id="light">
            <path d="M0 0h24v24H0z" fill="none" />
            <path
                d="M20 15.31L23.31 12 20 8.69V4h-4.69L12 .69 8.69 4H4v4.69L.69 12 4 15.31V20h4.69L12 23.31 15.31 20H20v-4.69zM12 18c-3.31 0-6-2.69-6-6s2.69-6 6-6 6 2.69 6 6-2.69 6-6 6z" />
        </g>

        <g id="chevron_left">
            <path d="M15.41 7.41L14 6l-6 6 6 6 1.41-1.41L10.83 12z" />
            <path d="M0 0h24v24H0z" fill="none" />
        </g>

        <g id="chevron_right">
            <path d="M10 6L8.59 7.41 13.17 12l-4.58 4.59L10 18l6-6z" />
            <path d="M0 0h24v24H0z" fill="none" />
        </g>

    </defs>
</svg>