<svg width="100" height="100" viewBox="0 0 100 100" fill="none" xmlns="http://www.w3.org/2000/svg">
  <g id="logo">
    <g id="Group 1">
      <path id="Rectangle 1" d="M22.9227 12.1212L34.384 0L48.9972 63.6363L37.5358 75.7575L22.9227 12.1212Z"
        fill="#F7D56E" />
      <path id="Rectangle 3" d="M57.5931 30.9092L69.0544 18.788L78.51 51.2122L48.8539 63.0304L57.5931 30.9092Z"
        fill="#F7D56E" />
      <path id="Rectangle 2" d="M48.9971 63.6365L100 46.9698L88.5387 59.0911L37.5358 75.7577L48.9971 63.6365Z"
        fill="#F7D56E" />
    </g>
    <g id="Group 3">
      <path id="Rectangle 1_2" d="M0 36.3636L11.4613 24.2424L26.0745 87.8788L14.6132 100L0 36.3636Z" fill="#F2BA0D" />
      <path id="Rectangle 2_2" d="M26.0745 87.8787L77.0774 71.212L65.6161 83.3332L14.6132 99.9999L26.0745 87.8787Z"
        fill="#F1B90E" />
    </g>
    <g id="Group 2">
      <path id="Rectangle 1_3" d="M11.4613 24.2424L22.9226 12.1212L37.5358 75.7575L26.0745 87.8787L11.4613 24.2424Z"
        fill="#F4C73E" />
      <path id="Rectangle 2_3" d="M37.5358 75.7575L88.5386 59.0908L77.0773 71.212L26.0745 87.8787L37.5358 75.7575Z"
        fill="#F4C73E" />
    </g>
    <path id="Union" fill-rule="evenodd" clip-rule="evenodd"
      d="M67.0092 32.5868L34.384 0L48.9971 63.6363L63.0465 59.0291L63.0372 59.0909L100 46.9697L69.0544 18.9394L67.0092 32.5868Z"
      fill="#FAE39E" />
  </g>
</svg>